<svg width="24" height="24" viewBox="0 0 24 24" fill="none" xmlns="http://www.w3.org/2000/svg">
<path d="M16.305 15.2475C17.452 13.8442 18.0519 12.073 17.994 10.2615C17.936 8.45005 17.2241 6.72084 15.9898 5.39369C14.7555 4.06653 13.0824 3.23122 11.2799 3.04222C9.47741 2.85322 7.66743 3.32333 6.18471 4.3656C4.702 5.40787 3.64686 6.95179 3.21443 8.71184C2.78199 10.4719 3.00152 12.329 3.83241 13.9397C4.6633 15.5504 6.04935 16.8058 7.73421 17.4736C9.41908 18.1414 11.2888 18.1766 12.9975 17.5725L12.5025 16.155C11.8601 16.3852 11.1825 16.5019 10.5 16.5C9.11165 16.5006 7.766 16.0198 6.69246 15.1393C5.61892 14.2589 4.88394 13.0334 4.6128 11.6718C4.34165 10.3101 4.55112 8.89655 5.20551 7.67204C5.85989 6.44753 6.91869 5.48786 8.20142 4.95661C9.48415 4.42535 10.9114 4.35539 12.24 4.75865C13.5685 5.16191 14.7161 6.01343 15.4871 7.16807C16.2581 8.32271 16.6048 9.709 16.4681 11.0907C16.3314 12.4723 15.7198 13.7638 14.7375 14.745V15.8025L19.7175 20.7825L20.7825 19.7175L16.305 15.2475Z" fill="#0A2E65"/>
</svg>
